<svg xmlns="http://www.w3.org/2000/svg" width="840" height="212" viewBox="0 0 840 212" role="img" aria-labelledby="title desc">
<title id="title">Guilherme Beserra · Contribution rhythm</title><desc id="desc">GitHub contribution calendar data</desc>
<rect x="0.5" y="0.5" width="839" height="211" rx="11" fill="#1a1b28" stroke="#34364c"/>
<rect x="22" y="16" width="24" height="3" rx="1.5" fill="#7aa2f7"/>
<rect x="50" y="16" width="11" height="3" rx="1.5" fill="#bb9af7"/>
<path d="M22 60H818" stroke="#34364c"/>
<g font-family="DejaVu Sans, Segoe UI, Arial, sans-serif">
<text x="22" y="45" fill="#7aa2f7" font-size="20" font-weight="700">Contribution rhythm</text>
<path d="M280 75V157M560 75V157" stroke="#34364c"/>
<text x="140" y="113" text-anchor="middle" fill="#7aa2f7" font-size="45" font-weight="700">427</text>
<text x="140" y="138" text-anchor="middle" fill="#9ecec5" font-size="15">All contributions</text>
<text x="140" y="157" text-anchor="middle" fill="#8994ad" font-size="12">since 2024</text>
<text x="420" y="113" text-anchor="middle" fill="#bb9af7" font-size="45" font-weight="700">3</text>
<text x="420" y="138" text-anchor="middle" fill="#9ecec5" font-size="15">Current streak · days</text>
<text x="700" y="113" text-anchor="middle" fill="#7aa2f7" font-size="45" font-weight="700">6</text>
<text x="700" y="138" text-anchor="middle" fill="#9ecec5" font-size="15">Longest streak · days</text>
<text x="22" y="189" fill="#8994ad" font-size="12">Last 35 days</text>
<rect x="197.0" y="195" width="9.7" height="3" rx="1.5" fill="#34364c"/><rect x="214.7" y="195" width="9.7" height="3" rx="1.5" fill="#34364c"/><rect x="232.4" y="195" width="9.7" height="3" rx="1.5" fill="#34364c"/><rect x="250.1" y="195" width="9.7" height="3" rx="1.5" fill="#34364c"/><rect x="267.9" y="195" width="9.7" height="3" rx="1.5" fill="#34364c"/><rect x="285.6" y="195" width="9.7" height="3" rx="1.5" fill="#7aa2f7"/><rect x="303.3" y="195" width="9.7" height="3" rx="1.5" fill="#34364c"/><rect x="321.0" y="195" width="9.7" height="3" rx="1.5" fill="#34364c"/><rect x="338.7" y="195" width="9.7" height="3" rx="1.5" fill="#34364c"/><rect x="356.4" y="195" width="9.7" height="3" rx="1.5" fill="#7aa2f7"/><rect x="374.1" y="195" width="9.7" height="3" rx="1.5" fill="#34364c"/><rect x="391.9" y="195" width="9.7" height="3" rx="1.5" fill="#34364c"/><rect x="409.6" y="195" width="9.7" height="3" rx="1.5" fill="#7aa2f7"/><rect x="427.3" y="195" width="9.7" height="3" rx="1.5" fill="#34364c"/><rect x="445.0" y="195" width="9.7" height="3" rx="1.5" fill="#34364c"/><rect x="462.7" y="193" width="9.7" height="5" rx="1.5" fill="#7aa2f7"/><rect x="480.4" y="195" width="9.7" height="3" rx="1.5" fill="#34364c"/><rect x="498.1" y="195" width="9.7" height="3" rx="1.5" fill="#34364c"/><rect x="515.9" y="195" width="9.7" height="3" rx="1.5" fill="#34364c"/><rect x="533.6" y="176" width="9.7" height="22" rx="1.5" fill="#7aa2f7"/><rect x="551.3" y="195" width="9.7" height="3" rx="1.5" fill="#7aa2f7"/><rect x="569.0" y="195" width="9.7" height="3" rx="1.5" fill="#34364c"/><rect x="586.7" y="195" width="9.7" height="3" rx="1.5" fill="#34364c"/><rect x="604.4" y="195" width="9.7" height="3" rx="1.5" fill="#34364c"/><rect x="622.1" y="195" width="9.7" height="3" rx="1.5" fill="#34364c"/><rect x="639.9" y="193" width="9.7" height="5" rx="1.5" fill="#7aa2f7"/><rect x="657.6" y="195" width="9.7" height="3" rx="1.5" fill="#34364c"/><rect x="675.3" y="195" width="9.7" height="3" rx="1.5" fill="#34364c"/><rect x="693.0" y="195" width="9.7" height="3" rx="1.5" fill="#34364c"/><rect x="710.7" y="195" width="9.7" height="3" rx="1.5" fill="#34364c"/><rect x="728.4" y="195" width="9.7" height="3" rx="1.5" fill="#34364c"/><rect x="746.1" y="195" width="9.7" height="3" rx="1.5" fill="#34364c"/><rect x="763.9" y="195" width="9.7" height="3" rx="1.5" fill="#7aa2f7"/><rect x="781.6" y="193" width="9.7" height="5" rx="1.5" fill="#7aa2f7"/><rect x="799.3" y="195" width="9.7" height="3" rx="1.5" fill="#7aa2f7"/></g>
</svg>
