<svg xmlns="http://www.w3.org/2000/svg" width="420" height="290" viewBox="0 0 420 290" role="img" aria-labelledby="title desc" data-visits="5">
<title id="title">Guilherme Beserra · Estadísticas de GitHub</title><desc id="desc">Guilherme Beserra · Contribuciones · 2026</desc>
<rect x="0.5" y="0.5" width="419" height="289" rx="11" fill="#1a1b28" stroke="#34364c"/>
<rect x="22" y="16" width="24" height="3" rx="1.5" fill="#7aa2f7"/>
<rect x="50" y="16" width="11" height="3" rx="1.5" fill="#bb9af7"/>
<path d="M22 60H398" stroke="#34364c"/>
<g font-family="DejaVu Sans, Segoe UI, Arial, sans-serif"><svg x="22" y="27" width="18" height="18" viewBox="0 0 24 24" fill="none" stroke="#7aa2f7" stroke-width="1.8" stroke-linecap="square" stroke-linejoin="miter" aria-hidden="true"><rect x="3" y="5" width="18" height="16"/><path d="M7 2v6m10-6v6M3 10h18m-13 4h2m4 0h2m-8 4h2"/></svg><text x="50" y="43" fill="#7aa2f7" font-size="19" font-weight="700">Estadísticas de GitHub</text><path d="M22 57H398" stroke="#34364c"/><svg x="22" y="67" width="18" height="18" viewBox="0 0 24 24" fill="none" stroke="#e0af68" stroke-width="1.8" stroke-linecap="square" stroke-linejoin="miter" aria-hidden="true"><path d="m12 2.3 2.9 6 6.6.8-4.8 4.6 1.2 6.6-5.9-3.2-5.9 3.2 1.2-6.6-4.8-4.6 6.6-.8 2.9-6Z"/></svg><text x="51" y="82" fill="#9ecec5" font-size="15">Estrellas</text><text x="398" y="82" text-anchor="end" fill="#7dcfff" font-size="18" font-weight="700">40</text><svg x="22" y="95" width="18" height="18" viewBox="0 0 24 24" fill="none" stroke="#bb9af7" stroke-width="1.8" stroke-linecap="square" stroke-linejoin="miter" aria-hidden="true"><circle cx="12" cy="5" r="2.6"/><circle cx="12" cy="19" r="2.6"/><path d="M12 7.6v8.8"/></svg><text x="51" y="110" fill="#9ecec5" font-size="15">Commits visibles · 2026</text><text x="398" y="110" text-anchor="end" fill="#7dcfff" font-size="18" font-weight="700">137</text><svg x="22" y="123" width="18" height="18" viewBox="0 0 24 24" fill="none" stroke="#bb9af7" stroke-width="1.8" stroke-linecap="square" stroke-linejoin="miter" aria-hidden="true"><path d="M4 3h16v18H4zM8 7h8M8 11h8M8 15h5"/></svg><text x="51" y="138" fill="#9ecec5" font-size="15">Repositorios públicos · 2026</text><text x="398" y="138" text-anchor="end" fill="#7dcfff" font-size="18" font-weight="700">16</text><svg x="22" y="151" width="18" height="18" viewBox="0 0 24 24" fill="none" stroke="#bb9af7" stroke-width="1.8" stroke-linecap="square" stroke-linejoin="miter" aria-hidden="true"><circle cx="7" cy="5" r="2.5"/><circle cx="17" cy="19" r="2.5"/><circle cx="17" cy="5" r="2.5"/><path d="M7 7.5v9m10-9v9m-7-7 4 4"/></svg><text x="51" y="166" fill="#9ecec5" font-size="15">Pull requests</text><text x="398" y="166" text-anchor="end" fill="#7dcfff" font-size="18" font-weight="700">10</text><svg x="22" y="179" width="18" height="18" viewBox="0 0 24 24" fill="none" stroke="#f7768e" stroke-width="1.8" stroke-linecap="square" stroke-linejoin="miter" aria-hidden="true"><path d="m12 2 10 10-10 10L2 12 12 2Z"/><path d="M12 7v6m0 4v.01"/></svg><text x="51" y="194" fill="#9ecec5" font-size="15">Incidencias</text><text x="398" y="194" text-anchor="end" fill="#7dcfff" font-size="18" font-weight="700">0</text><svg x="22" y="207" width="18" height="18" viewBox="0 0 24 24" fill="none" stroke="#7aa2f7" stroke-width="1.8" stroke-linecap="square" stroke-linejoin="miter" aria-hidden="true"><rect x="3" y="5" width="18" height="16"/><path d="M7 2v6m10-6v6M3 10h18m-13 4h2m4 0h2m-8 4h2"/></svg><text x="51" y="222" fill="#9ecec5" font-size="15">Contribuciones · 2026</text><text x="398" y="222" text-anchor="end" fill="#7dcfff" font-size="18" font-weight="700">414</text><svg x="22" y="235" width="18" height="18" viewBox="0 0 24 24" fill="none" stroke="#7dcfff" stroke-width="1.8" stroke-linecap="square" stroke-linejoin="miter" aria-hidden="true"><path d="m2 12 5-6h10l5 6-5 6H7l-5-6Z"/><path d="m12 9 3 3-3 3-3-3 3-3Z"/></svg><text x="51" y="250" fill="#9ecec5" font-size="15">Visitas del perfil</text><text id="visits-value" x="398" y="250" text-anchor="end" fill="#7dcfff" font-size="18" font-weight="700">5</text></g>
</svg>
